<svg width="24" height="25" viewBox="0 0 24 25" fill="none" xmlns="http://www.w3.org/2000/svg">
<rect y="0.5" width="24" height="24" rx="4" fill="#D0E9FF"/>
<path d="M5.3335 13.3333H18.3227C18.7081 13.3333 18.9008 13.3333 19.0109 13.2525C19.1068 13.182 19.1681 13.0739 19.1791 12.9553C19.1918 12.8194 19.0926 12.6541 18.8944 12.3237L17.206 9.50966C17.1311 9.38496 17.0937 9.3226 17.0791 9.25604C17.0662 9.19716 17.0662 9.13618 17.0791 9.0773C17.0937 9.01073 17.1311 8.94838 17.206 8.82367L18.8944 6.00966C19.0926 5.67919 19.1918 5.51395 19.1791 5.378C19.1681 5.25945 19.1068 5.15129 19.0109 5.08082C18.9008 5 18.7081 5 18.3227 5H5.3335L5.3335 20" stroke="#333333" stroke-width="1.66667" stroke-linecap="round" stroke-linejoin="round"/>
</svg>
