<svg width="24" height="25" viewBox="0 0 24 25" fill="none" xmlns="http://www.w3.org/2000/svg">
<rect y="0.5" width="24" height="24" rx="4" fill="#D9C2FB"/>
<path d="M13.6665 20.8332H7.6665M7.6665 20.8332C6.26637 20.8332 5.56631 20.8332 5.03153 20.5607C4.56112 20.321 4.17867 19.9386 3.93899 19.4681C3.6665 18.9334 3.6665 18.2333 3.6665 16.8332M7.6665 20.8332H7.99984C9.39997 20.8332 10.1 20.8332 10.6348 20.5607C11.1052 20.321 11.4877 19.9386 11.7274 19.4681C11.9998 18.9334 11.9998 18.2333 11.9998 16.8332V16.4998C11.9998 15.0997 11.9998 14.3996 11.7274 13.8649C11.4877 13.3945 11.1052 13.012 10.6348 12.7723C10.1 12.4998 9.39997 12.4998 7.99984 12.4998H7.6665C6.26637 12.4998 5.56631 12.4998 5.03153 12.7723C4.56112 13.012 4.17867 13.3945 3.93899 13.8649C3.6665 14.3996 3.6665 15.0997 3.6665 16.4998V16.8332M3.6665 16.8332V10.8332M10.3332 4.1665H13.6665M20.3332 10.8332V14.1665M16.9998 20.8332C17.7748 20.8332 18.1623 20.8332 18.4802 20.748C19.3429 20.5168 20.0168 19.8429 20.248 18.9802C20.3332 18.6623 20.3332 18.2748 20.3332 17.4998M20.3332 7.49984C20.3332 6.72486 20.3332 6.33737 20.248 6.01946C20.0168 5.15673 19.3429 4.48286 18.4802 4.25169C18.1623 4.1665 17.7748 4.1665 16.9998 4.1665M6.99984 4.1665C6.22486 4.1665 5.83737 4.1665 5.51946 4.25169C4.65673 4.48286 3.98286 5.15673 3.75169 6.01946C3.6665 6.33737 3.6665 6.72486 3.6665 7.49984" stroke="#333333" stroke-width="1.66667" stroke-linecap="round" stroke-linejoin="round"/>
</svg>
