<svg width="37" height="36" viewBox="0 0 37 36" fill="none" xmlns="http://www.w3.org/2000/svg">
<path d="M3.4834 1.79999H11.0412L18.7834 17.1H11.0412L3.4834 1.79999Z" fill="#CD202E"/>
<path d="M11.672 15.7L5.63038 3.20001H10.5277L16.8454 15.7H11.672Z" stroke="#FEFEFE"/>
<path d="M33.1833 1.79999H25.6255L17.8833 17.1H25.6255L33.1833 1.79999Z" fill="#CD202E"/>
<path d="M24.9947 15.7L31.0364 3.20001H26.1391L19.8213 15.7H24.9947Z" stroke="#FEFEFE"/>
<circle cx="18.3334" cy="23.85" r="10.8" fill="#D7701A"/>
<circle cx="18.3334" cy="23.85" r="7.1" fill="#D7701A" stroke="#FEFEFE" stroke-width="2"/>
<path d="M17.6851 23.7422H18.3031C18.5434 23.7422 18.7422 23.7007 18.8996 23.6177C19.0598 23.5348 19.1785 23.4203 19.2558 23.2744C19.333 23.1285 19.3717 22.9611 19.3717 22.7723C19.3717 22.5749 19.3359 22.4061 19.2644 22.2659C19.1957 22.1229 19.0899 22.0127 18.9468 21.9355C18.8066 21.8582 18.6278 21.8196 18.4104 21.8196C18.2273 21.8196 18.0613 21.8568 17.9126 21.9312C17.7667 22.0027 17.6508 22.1057 17.565 22.2402C17.4791 22.3718 17.4362 22.5291 17.4362 22.7122H16.3977C16.3977 22.3804 16.4849 22.0857 16.6595 21.8282C16.834 21.5707 17.0714 21.369 17.3718 21.2231C17.6751 21.0743 18.0156 20.9999 18.3932 20.9999C18.7966 20.9999 19.1485 21.0672 19.4489 21.2016C19.7522 21.3332 19.9882 21.5306 20.157 21.7939C20.3258 22.0571 20.4102 22.3832 20.4102 22.7723C20.4102 22.9497 20.3687 23.1299 20.2857 23.313C20.2028 23.4961 20.0797 23.6635 19.9167 23.8151C19.7536 23.9639 19.5505 24.0855 19.3073 24.1799C19.0641 24.2714 18.7823 24.3172 18.4619 24.3172H17.6851V23.7422ZM17.6851 24.549V23.9825H18.4619C18.8281 23.9825 19.1399 24.0254 19.3974 24.1112C19.6578 24.1971 19.8695 24.3158 20.0325 24.4674C20.1956 24.6162 20.3143 24.7864 20.3887 24.9781C20.466 25.1698 20.5046 25.3729 20.5046 25.5875C20.5046 25.8793 20.4517 26.1397 20.3458 26.3685C20.2428 26.5946 20.0955 26.7862 19.9038 26.9436C19.7121 27.1009 19.4875 27.2197 19.23 27.2998C18.9754 27.3799 18.6979 27.4199 18.3975 27.4199C18.1286 27.4199 17.8711 27.3827 17.625 27.3084C17.379 27.234 17.1587 27.1238 16.9642 26.9779C16.7696 26.8292 16.6151 26.6446 16.5007 26.4243C16.3891 26.2012 16.3333 25.9437 16.3333 25.6519H17.3676C17.3676 25.8378 17.4105 26.0023 17.4963 26.1454C17.585 26.2856 17.708 26.3957 17.8654 26.4758C18.0256 26.5559 18.2087 26.596 18.4147 26.596C18.6321 26.596 18.8195 26.5574 18.9768 26.4801C19.1342 26.4029 19.2544 26.2884 19.3373 26.1368C19.4232 25.9852 19.4661 25.8021 19.4661 25.5875C19.4661 25.3443 19.4189 25.1469 19.3244 24.9953C19.23 24.8436 19.0956 24.7321 18.9211 24.6605C18.7465 24.5862 18.5405 24.549 18.3031 24.549H17.6851Z" fill="#FEFEFE"/>
</svg>
