<svg width="24" height="25" viewBox="0 0 24 25" fill="none" xmlns="http://www.w3.org/2000/svg">
<rect y="0.5" width="24" height="24" rx="4" fill="#C9EED5"/>
<path d="M11.9998 19.1668H6.33317C5.39975 19.1668 4.93304 19.1668 4.57652 18.9852C4.26292 18.8254 4.00795 18.5704 3.84816 18.2568C3.6665 17.9003 3.6665 17.4336 3.6665 16.5002V8.50016C3.6665 7.56674 3.6665 7.10003 3.84816 6.74351C4.00795 6.42991 4.26292 6.17494 4.57652 6.01515C4.93304 5.8335 5.39975 5.8335 6.33317 5.8335H6.6665C8.53335 5.8335 9.46677 5.8335 10.1798 6.19681C10.807 6.51639 11.3169 7.02632 11.6365 7.65353C11.9998 8.36657 11.9998 9.29999 11.9998 11.1668M11.9998 19.1668V11.1668M11.9998 19.1668H17.6665C18.5999 19.1668 19.0666 19.1668 19.4232 18.9852C19.7368 18.8254 19.9917 18.5704 20.1515 18.2568C20.3332 17.9003 20.3332 17.4336 20.3332 16.5002V8.50016C20.3332 7.56674 20.3332 7.10003 20.1515 6.74351C19.9917 6.42991 19.7368 6.17494 19.4232 6.01515C19.0666 5.8335 18.5999 5.8335 17.6665 5.8335H17.3332C15.4663 5.8335 14.5329 5.8335 13.8199 6.19681C13.1927 6.51639 12.6827 7.02632 12.3631 7.65353C11.9998 8.36657 11.9998 9.29999 11.9998 11.1668" stroke="#333333" stroke-width="1.66667" stroke-linecap="round" stroke-linejoin="round"/>
</svg>
