<svg width="37" height="36" viewBox="0 0 37 36" fill="none" xmlns="http://www.w3.org/2000/svg">
<path d="M3.48334 1.79999H11.0412L18.7833 17.1H11.0412L3.48334 1.79999Z" fill="#CD202E"/>
<path d="M11.672 15.7L5.63032 3.20001H10.5276L16.8454 15.7H11.672Z" stroke="#FEFEFE"/>
<path d="M33.1833 1.79999H25.6255L17.8833 17.1H25.6255L33.1833 1.79999Z" fill="#CD202E"/>
<path d="M24.9947 15.7L31.0364 3.20001H26.1391L19.8213 15.7H24.9947Z" stroke="#FEFEFE"/>
<circle cx="18.3333" cy="23.85" r="10.8" fill="#AFB3B7"/>
<circle cx="18.3333" cy="23.85" r="7.1" fill="#AFB3B7" stroke="#FEFEFE" stroke-width="2"/>
<path d="M20.7002 26.5848V27.4199H16.455V26.7023L18.5167 24.4535C18.7429 24.1983 18.9213 23.978 19.0517 23.7924C19.1822 23.6068 19.2736 23.4401 19.3258 23.2922C19.3809 23.1414 19.4084 22.995 19.4084 22.8529C19.4084 22.6528 19.3707 22.4774 19.2953 22.3266C19.2228 22.1729 19.1155 22.0525 18.9735 21.9655C18.8314 21.8757 18.6588 21.8307 18.4559 21.8307C18.221 21.8307 18.0238 21.8815 17.8643 21.9829C17.7048 22.0844 17.5845 22.2251 17.5033 22.4049C17.4221 22.5817 17.3815 22.7847 17.3815 23.0138H16.3333C16.3333 22.6455 16.4173 22.3092 16.5855 22.0047C16.7537 21.6973 16.9973 21.4537 17.3163 21.274C17.6352 21.0913 18.0194 20.9999 18.4689 20.9999C18.8923 20.9999 19.2518 21.071 19.5476 21.2131C19.8434 21.3552 20.0681 21.5567 20.2218 21.8177C20.3784 22.0786 20.4567 22.3875 20.4567 22.7441C20.4567 22.9413 20.4248 23.137 20.361 23.3313C20.2972 23.5256 20.2058 23.7199 20.087 23.9142C19.971 24.1055 19.8332 24.2984 19.6737 24.4927C19.5143 24.684 19.3388 24.8783 19.1474 25.0755L17.7773 26.5848H20.7002Z" fill="#FEFEFE"/>
</svg>
