<svg width="198" height="141" viewBox="0 0 198 141" fill="none" xmlns="http://www.w3.org/2000/svg">
<rect x="0.166687" y="10" width="197.333" height="131" fill="#D7701A"/>
<path d="M173.82 0H23.8466L0.166656 10H197.5L173.82 0Z" fill="#F2B079"/>
<path d="M95.5094 37.1905H98.2565C99.3249 37.1905 100.209 37.0061 100.908 36.6373C101.621 36.2685 102.148 35.7597 102.492 35.1111C102.835 34.4625 103.007 33.7184 103.007 32.879C103.007 32.0015 102.848 31.2511 102.53 30.6279C102.225 29.992 101.754 29.5023 101.118 29.1589C100.495 28.8155 99.7001 28.6438 98.7335 28.6438C97.9195 28.6438 97.1818 28.8091 96.5205 29.1398C95.8718 29.4578 95.3567 29.9156 94.9752 30.5134C94.5936 31.0985 94.4029 31.798 94.4029 32.6119H89.7861C89.7861 31.1366 90.174 29.8266 90.9498 28.682C91.7257 27.5373 92.7813 26.6407 94.1167 25.992C95.4648 25.3307 96.9783 25 98.6572 25C100.45 25 102.015 25.2989 103.35 25.8966C104.698 26.4817 105.748 27.3593 106.498 28.5293C107.248 29.6994 107.624 31.1493 107.624 32.879C107.624 33.6676 107.439 34.4688 107.07 35.2828C106.702 36.0968 106.155 36.8408 105.43 37.5149C104.705 38.1762 103.802 38.7168 102.721 39.1365C101.64 39.5434 100.387 39.7469 98.9624 39.7469H95.5094V37.1905ZM95.5094 40.7771V38.2589H98.9624C100.59 38.2589 101.977 38.4497 103.121 38.8312C104.279 39.2128 105.22 39.7406 105.945 40.4147C106.67 41.076 107.198 41.8328 107.528 42.6849C107.872 43.537 108.043 44.44 108.043 45.3939C108.043 46.6912 107.808 47.8485 107.337 48.866C106.88 49.8708 106.225 50.7229 105.372 51.4224C104.52 52.1219 103.522 52.6497 102.377 53.0058C101.245 53.3619 100.012 53.54 98.6762 53.54C97.4807 53.54 96.3361 53.3747 95.2423 53.044C94.1485 52.7133 93.1692 52.2237 92.3043 51.575C91.4395 50.9137 90.7527 50.0933 90.244 49.114C89.7479 48.122 89.4999 46.9773 89.4999 45.6801H94.0976C94.0976 46.5067 94.2884 47.2381 94.67 47.874C95.0642 48.4972 95.6111 48.9868 96.3106 49.3429C97.0228 49.6991 97.8368 49.8771 98.7525 49.8771C99.7191 49.8771 100.552 49.7054 101.252 49.362C101.951 49.0186 102.485 48.5099 102.854 47.8358C103.236 47.1617 103.427 46.3478 103.427 45.3939C103.427 44.3128 103.217 43.4353 102.797 42.7612C102.377 42.0871 101.78 41.5911 101.004 41.2731C100.228 40.9425 99.3122 40.7771 98.2565 40.7771H95.5094Z" fill="#FEFEFE"/>
<rect x="62.4999" y="69.54" width="73" height="27" rx="4" fill="#333333" fill-opacity="0.25"/>
<path d="M78.9843 87.04V88.54H71.3593V87.251L75.0624 83.2119C75.4687 82.7536 75.789 82.3577 76.0234 82.0244C76.2578 81.6911 76.4218 81.3916 76.5156 81.126C76.6145 80.8551 76.664 80.5921 76.664 80.3369C76.664 79.9775 76.5963 79.6624 76.4609 79.3916C76.3307 79.1156 76.138 78.8994 75.8828 78.7432C75.6275 78.5817 75.3176 78.501 74.9531 78.501C74.5312 78.501 74.177 78.5921 73.8906 78.7744C73.6041 78.9567 73.388 79.2093 73.2421 79.5322C73.0963 79.8499 73.0234 80.2145 73.0234 80.626H71.1406C71.1406 79.9645 71.2916 79.3604 71.5937 78.8135C71.8958 78.2614 72.3333 77.8239 72.9062 77.501C73.4791 77.1729 74.1692 77.0088 74.9765 77.0088C75.7369 77.0088 76.3828 77.1364 76.914 77.3916C77.4453 77.6468 77.8489 78.0088 78.1249 78.4775C78.4062 78.9463 78.5468 79.501 78.5468 80.1416C78.5468 80.4958 78.4895 80.8473 78.3749 81.1963C78.2604 81.5452 78.0963 81.8942 77.8828 82.2432C77.6744 82.5869 77.427 82.9333 77.1406 83.2822C76.8541 83.626 76.539 83.9749 76.1953 84.3291L73.7343 87.04H78.9843ZM88.0671 81.8994V83.7588C88.0671 84.6494 87.9786 85.4098 87.8015 86.04C87.6296 86.665 87.3796 87.1729 87.0515 87.5635C86.7234 87.9541 86.3301 88.2406 85.8718 88.4229C85.4187 88.6051 84.9109 88.6963 84.3484 88.6963C83.9005 88.6963 83.4838 88.639 83.0984 88.5244C82.7182 88.4098 82.3744 88.2301 82.0671 87.9854C81.7598 87.7406 81.4968 87.4255 81.2781 87.04C81.0645 86.6494 80.8979 86.1833 80.7781 85.6416C80.6635 85.0999 80.6062 84.4723 80.6062 83.7588V81.8994C80.6062 81.0036 80.6947 80.2484 80.8718 79.6338C81.0489 79.014 81.3015 78.5114 81.6296 78.126C81.9578 77.7354 82.3484 77.4515 82.8015 77.2744C83.2598 77.0973 83.7703 77.0088 84.3328 77.0088C84.7859 77.0088 85.2025 77.0661 85.5828 77.1807C85.9682 77.29 86.3119 77.4645 86.614 77.7041C86.9213 77.9437 87.1817 78.2562 87.3953 78.6416C87.614 79.0218 87.7807 79.4827 87.8953 80.0244C88.0098 80.5609 88.0671 81.1859 88.0671 81.8994ZM86.1843 84.0244V81.6182C86.1843 81.165 86.1583 80.7666 86.1062 80.4229C86.0541 80.0739 85.976 79.7796 85.8718 79.54C85.7729 79.2952 85.6479 79.0973 85.4968 78.9463C85.3458 78.79 85.1739 78.6781 84.9812 78.6104C84.7885 78.5374 84.5723 78.501 84.3328 78.501C84.0411 78.501 83.7807 78.5583 83.5515 78.6729C83.3223 78.7822 83.1296 78.9593 82.9734 79.2041C82.8171 79.4489 82.6973 79.7718 82.614 80.1729C82.5359 80.5687 82.4968 81.0505 82.4968 81.6182V84.0244C82.4968 84.4827 82.5229 84.8864 82.5749 85.2354C82.627 85.5843 82.7051 85.8838 82.8093 86.1338C82.9135 86.3786 83.0385 86.5817 83.1843 86.7432C83.3354 86.8994 83.5072 87.014 83.6999 87.0869C83.8979 87.1598 84.114 87.1963 84.3484 87.1963C84.6453 87.1963 84.9083 87.139 85.1374 87.0244C85.3666 86.9098 85.5593 86.7275 85.7156 86.4775C85.8718 86.2223 85.989 85.8916 86.0671 85.4854C86.1453 85.0791 86.1843 84.5921 86.1843 84.0244ZM97.3609 81.8994V83.7588C97.3609 84.6494 97.2723 85.4098 97.0953 86.04C96.9234 86.665 96.6734 87.1729 96.3453 87.5635C96.0171 87.9541 95.6239 88.2406 95.1656 88.4229C94.7124 88.6051 94.2046 88.6963 93.6421 88.6963C93.1942 88.6963 92.7775 88.639 92.3921 88.5244C92.0119 88.4098 91.6682 88.2301 91.3609 87.9854C91.0536 87.7406 90.7906 87.4255 90.5718 87.04C90.3583 86.6494 90.1916 86.1833 90.0718 85.6416C89.9572 85.0999 89.8999 84.4723 89.8999 83.7588V81.8994C89.8999 81.0036 89.9885 80.2484 90.1656 79.6338C90.3426 79.014 90.5953 78.5114 90.9234 78.126C91.2515 77.7354 91.6421 77.4515 92.0953 77.2744C92.5536 77.0973 93.064 77.0088 93.6265 77.0088C94.0796 77.0088 94.4963 77.0661 94.8765 77.1807C95.2619 77.29 95.6057 77.4645 95.9078 77.7041C96.215 77.9437 96.4755 78.2562 96.689 78.6416C96.9078 79.0218 97.0744 79.4827 97.189 80.0244C97.3036 80.5609 97.3609 81.1859 97.3609 81.8994ZM95.4781 84.0244V81.6182C95.4781 81.165 95.452 80.7666 95.3999 80.4229C95.3479 80.0739 95.2697 79.7796 95.1656 79.54C95.0666 79.2952 94.9416 79.0973 94.7906 78.9463C94.6395 78.79 94.4676 78.6781 94.2749 78.6104C94.0822 78.5374 93.8661 78.501 93.6265 78.501C93.3348 78.501 93.0744 78.5583 92.8453 78.6729C92.6161 78.7822 92.4234 78.9593 92.2671 79.2041C92.1109 79.4489 91.9911 79.7718 91.9078 80.1729C91.8296 80.5687 91.7906 81.0505 91.7906 81.6182V84.0244C91.7906 84.4827 91.8166 84.8864 91.8687 85.2354C91.9208 85.5843 91.9989 85.8838 92.1031 86.1338C92.2072 86.3786 92.3322 86.5817 92.4781 86.7432C92.6291 86.8994 92.801 87.014 92.9937 87.0869C93.1916 87.1598 93.4078 87.1963 93.6421 87.1963C93.939 87.1963 94.202 87.139 94.4312 87.0244C94.6604 86.9098 94.8531 86.7275 95.0093 86.4775C95.1656 86.2223 95.2828 85.8916 95.3609 85.4854C95.439 85.0791 95.4781 84.5921 95.4781 84.0244ZM108.042 84.2979H105.081V82.7432H108.042C108.558 82.7432 108.974 82.6598 109.292 82.4932C109.61 82.3265 109.842 82.0973 109.987 81.8057C110.138 81.5088 110.214 81.1702 110.214 80.79C110.214 80.4307 110.138 80.0947 109.987 79.7822C109.842 79.4645 109.61 79.2093 109.292 79.0166C108.974 78.8239 108.558 78.7275 108.042 78.7275H105.683V88.54H103.722V77.165H108.042C108.922 77.165 109.67 77.3213 110.284 77.6338C110.904 77.9411 111.375 78.3682 111.698 78.915C112.021 79.4567 112.183 80.0765 112.183 80.7744C112.183 81.5088 112.021 82.139 111.698 82.665C111.375 83.1911 110.904 83.5947 110.284 83.876C109.67 84.1572 108.922 84.2979 108.042 84.2979ZM117.937 80.0869V81.4619H113.172V80.0869H117.937ZM114.547 78.0166H116.43V86.2041C116.43 86.4645 116.466 86.665 116.539 86.8057C116.617 86.9411 116.724 87.0322 116.859 87.0791C116.995 87.126 117.154 87.1494 117.336 87.1494C117.466 87.1494 117.591 87.1416 117.711 87.126C117.831 87.1104 117.927 87.0947 118 87.0791L118.008 88.5166C117.852 88.5635 117.669 88.6051 117.461 88.6416C117.258 88.6781 117.023 88.6963 116.758 88.6963C116.325 88.6963 115.943 88.6208 115.609 88.4697C115.276 88.3135 115.016 88.0609 114.828 87.7119C114.641 87.363 114.547 86.8994 114.547 86.3213V78.0166ZM124.333 86.251C124.333 86.0635 124.286 85.8942 124.192 85.7432C124.098 85.5869 123.919 85.4463 123.653 85.3213C123.393 85.1963 123.007 85.0817 122.497 84.9775C122.049 84.8786 121.637 84.7614 121.262 84.626C120.893 84.4854 120.575 84.3161 120.309 84.1182C120.044 83.9202 119.838 83.6859 119.692 83.415C119.546 83.1442 119.473 82.8317 119.473 82.4775C119.473 82.1338 119.549 81.8083 119.7 81.501C119.851 81.1937 120.067 80.9229 120.348 80.6885C120.63 80.4541 120.971 80.2692 121.372 80.1338C121.778 79.9984 122.231 79.9307 122.731 79.9307C123.44 79.9307 124.046 80.0505 124.552 80.29C125.062 80.5244 125.453 80.8447 125.723 81.251C125.994 81.652 126.13 82.1051 126.13 82.6104H124.247C124.247 82.3864 124.19 82.1781 124.075 81.9854C123.966 81.7874 123.799 81.6286 123.575 81.5088C123.351 81.3838 123.07 81.3213 122.731 81.3213C122.408 81.3213 122.14 81.3734 121.927 81.4775C121.718 81.5765 121.562 81.7067 121.458 81.8682C121.359 82.0296 121.309 82.2067 121.309 82.3994C121.309 82.54 121.335 82.6676 121.387 82.7822C121.445 82.8916 121.538 82.9932 121.669 83.0869C121.799 83.1755 121.976 83.2588 122.2 83.3369C122.429 83.415 122.716 83.4906 123.059 83.5635C123.705 83.6989 124.26 83.8734 124.723 84.0869C125.192 84.2952 125.552 84.5661 125.802 84.8994C126.052 85.2275 126.177 85.6442 126.177 86.1494C126.177 86.5244 126.096 86.8682 125.934 87.1807C125.778 87.488 125.549 87.7562 125.247 87.9854C124.945 88.2093 124.583 88.3838 124.161 88.5088C123.744 88.6338 123.275 88.6963 122.755 88.6963C121.989 88.6963 121.341 88.5609 120.809 88.29C120.278 88.014 119.874 87.6624 119.598 87.2354C119.328 86.8031 119.192 86.3551 119.192 85.8916H121.012C121.033 86.2406 121.13 86.5192 121.302 86.7275C121.479 86.9307 121.697 87.0791 121.958 87.1729C122.223 87.2614 122.497 87.3057 122.778 87.3057C123.117 87.3057 123.4 87.2614 123.63 87.1729C123.859 87.0791 124.033 86.9541 124.153 86.7979C124.273 86.6364 124.333 86.4541 124.333 86.251Z" fill="#FEFEFE"/>
<rect x="57.4999" y="104.54" width="83" height="27" rx="4" fill="#333333" fill-opacity="0.25"/>
<path d="M73.9843 122.04V123.54H66.3593V122.251L70.0624 118.212C70.4687 117.754 70.789 117.358 71.0234 117.024C71.2578 116.691 71.4218 116.392 71.5156 116.126C71.6145 115.855 71.664 115.592 71.664 115.337C71.664 114.978 71.5963 114.662 71.4609 114.392C71.3307 114.116 71.138 113.899 70.8828 113.743C70.6275 113.582 70.3176 113.501 69.9531 113.501C69.5312 113.501 69.177 113.592 68.8906 113.774C68.6041 113.957 68.388 114.209 68.2421 114.532C68.0963 114.85 68.0234 115.215 68.0234 115.626H66.1406C66.1406 114.965 66.2916 114.36 66.5937 113.813C66.8958 113.261 67.3333 112.824 67.9062 112.501C68.4791 112.173 69.1692 112.009 69.9765 112.009C70.7369 112.009 71.3828 112.136 71.914 112.392C72.4453 112.647 72.8489 113.009 73.1249 113.478C73.4062 113.946 73.5468 114.501 73.5468 115.142C73.5468 115.496 73.4895 115.847 73.3749 116.196C73.2604 116.545 73.0963 116.894 72.8828 117.243C72.6744 117.587 72.427 117.933 72.1406 118.282C71.8541 118.626 71.539 118.975 71.1953 119.329L68.7343 122.04H73.9843ZM83.0671 116.899V118.759C83.0671 119.649 82.9786 120.41 82.8015 121.04C82.6296 121.665 82.3796 122.173 82.0515 122.563C81.7234 122.954 81.3301 123.241 80.8718 123.423C80.4187 123.605 79.9109 123.696 79.3484 123.696C78.9005 123.696 78.4838 123.639 78.0984 123.524C77.7182 123.41 77.3744 123.23 77.0671 122.985C76.7598 122.741 76.4968 122.425 76.2781 122.04C76.0645 121.649 75.8979 121.183 75.7781 120.642C75.6635 120.1 75.6062 119.472 75.6062 118.759V116.899C75.6062 116.004 75.6947 115.248 75.8718 114.634C76.0489 114.014 76.3015 113.511 76.6296 113.126C76.9578 112.735 77.3484 112.451 77.8015 112.274C78.2598 112.097 78.7703 112.009 79.3328 112.009C79.7859 112.009 80.2025 112.066 80.5828 112.181C80.9682 112.29 81.3119 112.465 81.614 112.704C81.9213 112.944 82.1817 113.256 82.3953 113.642C82.614 114.022 82.7807 114.483 82.8953 115.024C83.0098 115.561 83.0671 116.186 83.0671 116.899ZM81.1843 119.024V116.618C81.1843 116.165 81.1583 115.767 81.1062 115.423C81.0541 115.074 80.976 114.78 80.8718 114.54C80.7729 114.295 80.6479 114.097 80.4968 113.946C80.3458 113.79 80.1739 113.678 79.9812 113.61C79.7885 113.537 79.5723 113.501 79.3328 113.501C79.0411 113.501 78.7807 113.558 78.5515 113.673C78.3223 113.782 78.1296 113.959 77.9734 114.204C77.8171 114.449 77.6973 114.772 77.614 115.173C77.5359 115.569 77.4968 116.05 77.4968 116.618V119.024C77.4968 119.483 77.5229 119.886 77.5749 120.235C77.627 120.584 77.7051 120.884 77.8093 121.134C77.9135 121.379 78.0385 121.582 78.1843 121.743C78.3354 121.899 78.5072 122.014 78.6999 122.087C78.8979 122.16 79.114 122.196 79.3484 122.196C79.6453 122.196 79.9083 122.139 80.1374 122.024C80.3666 121.91 80.5593 121.728 80.7156 121.478C80.8718 121.222 80.989 120.892 81.0671 120.485C81.1453 120.079 81.1843 119.592 81.1843 119.024ZM92.3609 116.899V118.759C92.3609 119.649 92.2723 120.41 92.0953 121.04C91.9234 121.665 91.6734 122.173 91.3453 122.563C91.0171 122.954 90.6239 123.241 90.1656 123.423C89.7124 123.605 89.2046 123.696 88.6421 123.696C88.1942 123.696 87.7775 123.639 87.3921 123.524C87.0119 123.41 86.6682 123.23 86.3609 122.985C86.0536 122.741 85.7906 122.425 85.5718 122.04C85.3583 121.649 85.1916 121.183 85.0718 120.642C84.9572 120.1 84.8999 119.472 84.8999 118.759V116.899C84.8999 116.004 84.9885 115.248 85.1656 114.634C85.3426 114.014 85.5953 113.511 85.9234 113.126C86.2515 112.735 86.6421 112.451 87.0953 112.274C87.5536 112.097 88.064 112.009 88.6265 112.009C89.0796 112.009 89.4963 112.066 89.8765 112.181C90.2619 112.29 90.6057 112.465 90.9078 112.704C91.215 112.944 91.4755 113.256 91.689 113.642C91.9078 114.022 92.0744 114.483 92.189 115.024C92.3036 115.561 92.3609 116.186 92.3609 116.899ZM90.4781 119.024V116.618C90.4781 116.165 90.452 115.767 90.3999 115.423C90.3479 115.074 90.2697 114.78 90.1656 114.54C90.0666 114.295 89.9416 114.097 89.7906 113.946C89.6395 113.79 89.4676 113.678 89.2749 113.61C89.0822 113.537 88.8661 113.501 88.6265 113.501C88.3348 113.501 88.0744 113.558 87.8453 113.673C87.6161 113.782 87.4234 113.959 87.2671 114.204C87.1109 114.449 86.9911 114.772 86.9078 115.173C86.8296 115.569 86.7906 116.05 86.7906 116.618V119.024C86.7906 119.483 86.8166 119.886 86.8687 120.235C86.9208 120.584 86.9989 120.884 87.1031 121.134C87.2072 121.379 87.3322 121.582 87.4781 121.743C87.6291 121.899 87.801 122.014 87.9937 122.087C88.1916 122.16 88.4078 122.196 88.6421 122.196C88.939 122.196 89.202 122.139 89.4312 122.024C89.6604 121.91 89.8531 121.728 90.0093 121.478C90.1656 121.222 90.2828 120.892 90.3609 120.485C90.439 120.079 90.4781 119.592 90.4781 119.024ZM103.027 112.165V123.54H101.081V112.165H103.027ZM106.597 112.165V113.728H97.5421V112.165H106.597ZM111.828 121.845V117.813C111.828 117.511 111.773 117.251 111.664 117.032C111.555 116.813 111.388 116.644 111.164 116.524C110.945 116.405 110.669 116.345 110.336 116.345C110.029 116.345 109.763 116.397 109.539 116.501C109.315 116.605 109.141 116.746 109.016 116.923C108.891 117.1 108.828 117.3 108.828 117.524H106.953C106.953 117.191 107.034 116.868 107.195 116.556C107.357 116.243 107.591 115.965 107.898 115.72C108.206 115.475 108.573 115.282 109 115.142C109.427 115.001 109.906 114.931 110.437 114.931C111.073 114.931 111.635 115.037 112.125 115.251C112.62 115.465 113.008 115.787 113.289 116.22C113.575 116.647 113.719 117.183 113.719 117.829V121.587C113.719 121.972 113.745 122.319 113.797 122.626C113.854 122.928 113.935 123.191 114.039 123.415V123.54H112.109C112.021 123.337 111.95 123.079 111.898 122.767C111.852 122.449 111.828 122.142 111.828 121.845ZM112.102 118.399L112.117 119.563H110.766C110.417 119.563 110.109 119.597 109.844 119.665C109.578 119.728 109.357 119.821 109.18 119.946C109.003 120.071 108.87 120.222 108.781 120.399C108.693 120.576 108.648 120.777 108.648 121.001C108.648 121.225 108.7 121.431 108.805 121.618C108.909 121.8 109.06 121.944 109.258 122.048C109.461 122.152 109.706 122.204 109.992 122.204C110.378 122.204 110.713 122.126 111 121.97C111.292 121.808 111.521 121.613 111.687 121.384C111.854 121.149 111.943 120.928 111.953 120.72L112.562 121.556C112.5 121.769 112.393 121.998 112.242 122.243C112.091 122.488 111.893 122.722 111.648 122.946C111.409 123.165 111.12 123.345 110.781 123.485C110.448 123.626 110.062 123.696 109.625 123.696C109.073 123.696 108.581 123.587 108.148 123.368C107.716 123.144 107.378 122.845 107.133 122.47C106.888 122.09 106.766 121.66 106.766 121.181C106.766 120.733 106.849 120.337 107.016 119.993C107.187 119.644 107.437 119.353 107.766 119.118C108.099 118.884 108.505 118.707 108.984 118.587C109.463 118.462 110.01 118.399 110.625 118.399H112.102ZM120.63 121.251C120.63 121.063 120.583 120.894 120.489 120.743C120.395 120.587 120.216 120.446 119.95 120.321C119.69 120.196 119.304 120.082 118.794 119.978C118.346 119.879 117.934 119.761 117.559 119.626C117.19 119.485 116.872 119.316 116.606 119.118C116.341 118.92 116.135 118.686 115.989 118.415C115.843 118.144 115.77 117.832 115.77 117.478C115.77 117.134 115.846 116.808 115.997 116.501C116.148 116.194 116.364 115.923 116.645 115.688C116.927 115.454 117.268 115.269 117.669 115.134C118.075 114.998 118.528 114.931 119.028 114.931C119.736 114.931 120.343 115.05 120.848 115.29C121.359 115.524 121.749 115.845 122.02 116.251C122.291 116.652 122.427 117.105 122.427 117.61H120.544C120.544 117.386 120.486 117.178 120.372 116.985C120.262 116.787 120.096 116.629 119.872 116.509C119.648 116.384 119.367 116.321 119.028 116.321C118.705 116.321 118.437 116.373 118.223 116.478C118.015 116.576 117.859 116.707 117.755 116.868C117.656 117.03 117.606 117.207 117.606 117.399C117.606 117.54 117.632 117.668 117.684 117.782C117.742 117.892 117.835 117.993 117.966 118.087C118.096 118.175 118.273 118.259 118.497 118.337C118.726 118.415 119.012 118.491 119.356 118.563C120.002 118.699 120.557 118.873 121.02 119.087C121.489 119.295 121.848 119.566 122.098 119.899C122.348 120.228 122.473 120.644 122.473 121.149C122.473 121.524 122.393 121.868 122.231 122.181C122.075 122.488 121.846 122.756 121.544 122.985C121.242 123.209 120.88 123.384 120.458 123.509C120.041 123.634 119.572 123.696 119.052 123.696C118.286 123.696 117.637 123.561 117.106 123.29C116.575 123.014 116.171 122.662 115.895 122.235C115.624 121.803 115.489 121.355 115.489 120.892H117.309C117.33 121.241 117.427 121.519 117.598 121.728C117.775 121.931 117.994 122.079 118.255 122.173C118.52 122.261 118.794 122.306 119.075 122.306C119.413 122.306 119.697 122.261 119.927 122.173C120.156 122.079 120.33 121.954 120.45 121.798C120.57 121.636 120.63 121.454 120.63 121.251ZM126.22 111.54V123.54H124.33V111.54H126.22ZM131.47 115.087L127.791 119.165L125.775 121.228L125.283 119.634L126.806 117.751L129.197 115.087H131.47ZM129.603 123.54L126.861 119.571L128.048 118.251L131.783 123.54H129.603Z" fill="#FEFEFE"/>
</svg>
