<svg width="198" height="225" viewBox="0 0 198 225" fill="none" xmlns="http://www.w3.org/2000/svg">
<rect x="0.666626" y="10" width="197.333" height="215" fill="#F1B32B"/>
<path d="M174.32 0H24.3466L0.666656 10H198L174.32 0Z" fill="#FFDE95"/>
<path d="M105.013 26.4648V55H100.306V32.0508L93.3334 34.4141V30.5273L104.447 26.4648H105.013Z" fill="#FEFEFE"/>
<rect x="62.3334" y="71" width="73" height="27" rx="4" fill="#333333" fill-opacity="0.25"/>
<path d="M78.8177 88.5V90H71.1927V88.7109L74.8959 84.6719C75.3021 84.2135 75.6224 83.8177 75.8568 83.4844C76.0912 83.151 76.2552 82.8516 76.349 82.5859C76.448 82.3151 76.4974 82.0521 76.4974 81.7969C76.4974 81.4375 76.4297 81.1224 76.2943 80.8516C76.1641 80.5755 75.9714 80.3594 75.7162 80.2031C75.461 80.0417 75.1511 79.9609 74.7865 79.9609C74.3646 79.9609 74.0105 80.0521 73.724 80.2344C73.4375 80.4167 73.2214 80.6693 73.0756 80.9922C72.9297 81.3099 72.8568 81.6745 72.8568 82.0859H70.974C70.974 81.4245 71.125 80.8203 71.4271 80.2734C71.7292 79.7214 72.1667 79.2839 72.7396 78.9609C73.3125 78.6328 74.0026 78.4688 74.8099 78.4688C75.5704 78.4688 76.2162 78.5964 76.7474 78.8516C77.2787 79.1068 77.6823 79.4688 77.9584 79.9375C78.2396 80.4062 78.3802 80.9609 78.3802 81.6016C78.3802 81.9557 78.323 82.3073 78.2084 82.6562C78.0938 83.0052 77.9297 83.3542 77.7162 83.7031C77.5079 84.0469 77.2605 84.3932 76.974 84.7422C76.6875 85.0859 76.3724 85.4349 76.0287 85.7891L73.5677 88.5H78.8177ZM82.4631 84.7109L80.9631 84.3438L81.5802 78.625H87.7131V80.2188H83.1427L82.8302 83.0078C83.0073 82.9036 83.2521 82.8021 83.5646 82.7031C83.8771 82.599 84.2339 82.5469 84.6349 82.5469C85.1714 82.5469 85.6506 82.6354 86.0724 82.8125C86.4995 82.9844 86.8615 83.237 87.1584 83.5703C87.4552 83.8984 87.6818 84.2995 87.8381 84.7734C87.9943 85.2422 88.0724 85.7708 88.0724 86.3594C88.0724 86.8854 87.9943 87.3776 87.8381 87.8359C87.687 88.2943 87.4579 88.6979 87.1506 89.0469C86.8433 89.3958 86.4552 89.6693 85.9865 89.8672C85.523 90.0599 84.9735 90.1562 84.3381 90.1562C83.8641 90.1562 83.4084 90.0885 82.9709 89.9531C82.5386 89.8125 82.1506 89.6068 81.8068 89.3359C81.4631 89.0599 81.187 88.7214 80.9787 88.3203C80.7704 87.9141 80.6506 87.4479 80.6193 86.9219H82.4631C82.5099 87.2917 82.6115 87.6068 82.7677 87.8672C82.9292 88.1224 83.1427 88.3177 83.4084 88.4531C83.674 88.5885 83.9813 88.6562 84.3302 88.6562C84.648 88.6562 84.9214 88.6016 85.1506 88.4922C85.3797 88.3776 85.5698 88.2161 85.7209 88.0078C85.8771 87.7943 85.9917 87.5443 86.0646 87.2578C86.1427 86.9714 86.1818 86.6536 86.1818 86.3047C86.1818 85.9714 86.1375 85.6667 86.049 85.3906C85.9657 85.1146 85.8381 84.875 85.6662 84.6719C85.4995 84.4688 85.2886 84.3125 85.0334 84.2031C84.7782 84.0885 84.4839 84.0312 84.1506 84.0312C83.7026 84.0312 83.3589 84.0964 83.1193 84.2266C82.8849 84.3568 82.6662 84.5182 82.4631 84.7109ZM94.9209 78.5859V90H93.0381V80.8203L90.249 81.7656V80.2109L94.6943 78.5859H94.9209ZM107.876 85.7578H104.915V84.2031H107.876C108.391 84.2031 108.808 84.1198 109.126 83.9531C109.443 83.7865 109.675 83.5573 109.821 83.2656C109.972 82.9688 110.047 82.6302 110.047 82.25C110.047 81.8906 109.972 81.5547 109.821 81.2422C109.675 80.9245 109.443 80.6693 109.126 80.4766C108.808 80.2839 108.391 80.1875 107.876 80.1875H105.516V90H103.555V78.625H107.876C108.756 78.625 109.503 78.7812 110.118 79.0938C110.738 79.401 111.209 79.8281 111.532 80.375C111.855 80.9167 112.016 81.5365 112.016 82.2344C112.016 82.9688 111.855 83.599 111.532 84.125C111.209 84.651 110.738 85.0547 110.118 85.3359C109.503 85.6172 108.756 85.7578 107.876 85.7578ZM117.771 81.5469V82.9219H113.005V81.5469H117.771ZM114.38 79.4766H116.263V87.6641C116.263 87.9245 116.3 88.125 116.372 88.2656C116.451 88.401 116.557 88.4922 116.693 88.5391C116.828 88.5859 116.987 88.6094 117.169 88.6094C117.3 88.6094 117.425 88.6016 117.544 88.5859C117.664 88.5703 117.76 88.5547 117.833 88.5391L117.841 89.9766C117.685 90.0234 117.503 90.0651 117.294 90.1016C117.091 90.138 116.857 90.1562 116.591 90.1562C116.159 90.1562 115.776 90.0807 115.443 89.9297C115.109 89.7734 114.849 89.5208 114.661 89.1719C114.474 88.8229 114.38 88.3594 114.38 87.7812V79.4766ZM124.166 87.7109C124.166 87.5234 124.119 87.3542 124.026 87.2031C123.932 87.0469 123.752 86.9062 123.486 86.7812C123.226 86.6562 122.841 86.5417 122.33 86.4375C121.882 86.3385 121.471 86.2214 121.096 86.0859C120.726 85.9453 120.408 85.776 120.143 85.5781C119.877 85.3802 119.671 85.1458 119.526 84.875C119.38 84.6042 119.307 84.2917 119.307 83.9375C119.307 83.5938 119.382 83.2682 119.533 82.9609C119.684 82.6536 119.901 82.3828 120.182 82.1484C120.463 81.9141 120.804 81.7292 121.205 81.5938C121.611 81.4583 122.065 81.3906 122.565 81.3906C123.273 81.3906 123.88 81.5104 124.385 81.75C124.895 81.9844 125.286 82.3047 125.557 82.7109C125.828 83.112 125.963 83.5651 125.963 84.0703H124.08C124.08 83.8464 124.023 83.638 123.908 83.4453C123.799 83.2474 123.632 83.0885 123.408 82.9688C123.184 82.8438 122.903 82.7812 122.565 82.7812C122.242 82.7812 121.973 82.8333 121.76 82.9375C121.552 83.0365 121.395 83.1667 121.291 83.3281C121.192 83.4896 121.143 83.6667 121.143 83.8594C121.143 84 121.169 84.1276 121.221 84.2422C121.278 84.3516 121.372 84.4531 121.502 84.5469C121.632 84.6354 121.809 84.7188 122.033 84.7969C122.263 84.875 122.549 84.9505 122.893 85.0234C123.539 85.1589 124.093 85.3333 124.557 85.5469C125.026 85.7552 125.385 86.026 125.635 86.3594C125.885 86.6875 126.01 87.1042 126.01 87.6094C126.01 87.9844 125.929 88.3281 125.768 88.6406C125.611 88.9479 125.382 89.2161 125.08 89.4453C124.778 89.6693 124.416 89.8438 123.994 89.9688C123.578 90.0938 123.109 90.1562 122.588 90.1562C121.822 90.1562 121.174 90.0208 120.643 89.75C120.111 89.474 119.708 89.1224 119.432 88.6953C119.161 88.263 119.026 87.8151 119.026 87.3516H120.846C120.867 87.7005 120.963 87.9792 121.135 88.1875C121.312 88.3906 121.531 88.5391 121.791 88.6328C122.057 88.7214 122.33 88.7656 122.611 88.7656C122.95 88.7656 123.234 88.7214 123.463 88.6328C123.692 88.5391 123.867 88.4141 123.986 88.2578C124.106 88.0964 124.166 87.9141 124.166 87.7109Z" fill="#FEFEFE"/>
<rect x="57.3334" y="106" width="83" height="27" rx="4" fill="#333333" fill-opacity="0.25"/>
<path d="M73.8177 123.5V125H66.1927V123.711L69.8959 119.672C70.3021 119.214 70.6224 118.818 70.8568 118.484C71.0912 118.151 71.2552 117.852 71.349 117.586C71.448 117.315 71.4974 117.052 71.4974 116.797C71.4974 116.438 71.4297 116.122 71.2943 115.852C71.1641 115.576 70.9714 115.359 70.7162 115.203C70.461 115.042 70.1511 114.961 69.7865 114.961C69.3646 114.961 69.0105 115.052 68.724 115.234C68.4375 115.417 68.2214 115.669 68.0756 115.992C67.9297 116.31 67.8568 116.674 67.8568 117.086H65.974C65.974 116.424 66.125 115.82 66.4271 115.273C66.7292 114.721 67.1667 114.284 67.7396 113.961C68.3125 113.633 69.0026 113.469 69.8099 113.469C70.5704 113.469 71.2162 113.596 71.7474 113.852C72.2787 114.107 72.6823 114.469 72.9584 114.938C73.2396 115.406 73.3802 115.961 73.3802 116.602C73.3802 116.956 73.323 117.307 73.2084 117.656C73.0938 118.005 72.9297 118.354 72.7162 118.703C72.5079 119.047 72.2605 119.393 71.974 119.742C71.6875 120.086 71.3724 120.435 71.0287 120.789L68.5677 123.5H73.8177ZM77.6974 118.461H78.8224C79.2599 118.461 79.6219 118.385 79.9084 118.234C80.2 118.083 80.4162 117.875 80.5568 117.609C80.6974 117.344 80.7677 117.039 80.7677 116.695C80.7677 116.336 80.7026 116.029 80.5724 115.773C80.4474 115.513 80.2547 115.312 79.9943 115.172C79.7391 115.031 79.4136 114.961 79.0177 114.961C78.6844 114.961 78.3823 115.029 78.1115 115.164C77.8459 115.294 77.6349 115.482 77.4787 115.727C77.3224 115.966 77.2443 116.253 77.2443 116.586H75.3537C75.3537 115.982 75.5125 115.445 75.8302 114.977C76.148 114.508 76.5802 114.141 77.1271 113.875C77.6792 113.604 78.299 113.469 78.9865 113.469C79.7209 113.469 80.3615 113.591 80.9084 113.836C81.4605 114.076 81.8901 114.435 82.1974 114.914C82.5047 115.393 82.6584 115.987 82.6584 116.695C82.6584 117.018 82.5829 117.346 82.4318 117.68C82.2808 118.013 82.0568 118.318 81.7599 118.594C81.4631 118.865 81.0933 119.086 80.6506 119.258C80.2079 119.424 79.6948 119.508 79.1115 119.508H77.6974V118.461ZM77.6974 119.93V118.898H79.1115C79.7782 118.898 80.3459 118.977 80.8146 119.133C81.2886 119.289 81.674 119.505 81.9709 119.781C82.2677 120.052 82.4839 120.362 82.6193 120.711C82.7599 121.06 82.8302 121.43 82.8302 121.82C82.8302 122.352 82.7339 122.826 82.5412 123.242C82.3537 123.654 82.0855 124.003 81.7365 124.289C81.3875 124.576 80.9787 124.792 80.5099 124.938C80.0464 125.083 79.5412 125.156 78.9943 125.156C78.5047 125.156 78.036 125.089 77.5881 124.953C77.1401 124.818 76.7391 124.617 76.3849 124.352C76.0308 124.081 75.7495 123.745 75.5412 123.344C75.3381 122.938 75.2365 122.469 75.2365 121.938H77.1193C77.1193 122.276 77.1974 122.576 77.3537 122.836C77.5151 123.091 77.7391 123.292 78.0256 123.438C78.3172 123.583 78.6506 123.656 79.0256 123.656C79.4214 123.656 79.7625 123.586 80.049 123.445C80.3355 123.305 80.5542 123.096 80.7052 122.82C80.8615 122.544 80.9396 122.211 80.9396 121.82C80.9396 121.378 80.8537 121.018 80.6818 120.742C80.5099 120.466 80.2651 120.263 79.9474 120.133C79.6297 119.997 79.2547 119.93 78.8224 119.93H77.6974ZM92.4052 123.5V125H84.7802V123.711L88.4834 119.672C88.8896 119.214 89.2099 118.818 89.4443 118.484C89.6787 118.151 89.8427 117.852 89.9365 117.586C90.0355 117.315 90.0849 117.052 90.0849 116.797C90.0849 116.438 90.0172 116.122 89.8818 115.852C89.7516 115.576 89.5589 115.359 89.3037 115.203C89.0485 115.042 88.7386 114.961 88.374 114.961C87.9521 114.961 87.598 115.052 87.3115 115.234C87.025 115.417 86.8089 115.669 86.6631 115.992C86.5172 116.31 86.4443 116.674 86.4443 117.086H84.5615C84.5615 116.424 84.7125 115.82 85.0146 115.273C85.3167 114.721 85.7542 114.284 86.3271 113.961C86.9 113.633 87.5901 113.469 88.3974 113.469C89.1579 113.469 89.8037 113.596 90.3349 113.852C90.8662 114.107 91.2698 114.469 91.5459 114.938C91.8271 115.406 91.9677 115.961 91.9677 116.602C91.9677 116.956 91.9105 117.307 91.7959 117.656C91.6813 118.005 91.5172 118.354 91.3037 118.703C91.0954 119.047 90.848 119.393 90.5615 119.742C90.275 120.086 89.9599 120.435 89.6162 120.789L87.1552 123.5H92.4052ZM102.86 113.625V125H100.915V113.625H102.86ZM106.43 113.625V115.188H97.3756V113.625H106.43ZM111.661 123.305V119.273C111.661 118.971 111.607 118.711 111.497 118.492C111.388 118.273 111.221 118.104 110.997 117.984C110.779 117.865 110.503 117.805 110.169 117.805C109.862 117.805 109.596 117.857 109.372 117.961C109.148 118.065 108.974 118.206 108.849 118.383C108.724 118.56 108.661 118.76 108.661 118.984H106.786C106.786 118.651 106.867 118.328 107.029 118.016C107.19 117.703 107.425 117.424 107.732 117.18C108.039 116.935 108.406 116.742 108.833 116.602C109.26 116.461 109.74 116.391 110.271 116.391C110.906 116.391 111.469 116.497 111.958 116.711C112.453 116.924 112.841 117.247 113.122 117.68C113.409 118.107 113.552 118.643 113.552 119.289V123.047C113.552 123.432 113.578 123.779 113.63 124.086C113.688 124.388 113.768 124.651 113.872 124.875V125H111.943C111.854 124.797 111.784 124.539 111.732 124.227C111.685 123.909 111.661 123.602 111.661 123.305ZM111.935 119.859L111.951 121.023H110.599C110.25 121.023 109.943 121.057 109.677 121.125C109.411 121.188 109.19 121.281 109.013 121.406C108.836 121.531 108.703 121.682 108.615 121.859C108.526 122.036 108.482 122.237 108.482 122.461C108.482 122.685 108.534 122.891 108.638 123.078C108.742 123.26 108.893 123.404 109.091 123.508C109.294 123.612 109.539 123.664 109.826 123.664C110.211 123.664 110.547 123.586 110.833 123.43C111.125 123.268 111.354 123.073 111.521 122.844C111.688 122.609 111.776 122.388 111.786 122.18L112.396 123.016C112.333 123.229 112.227 123.458 112.076 123.703C111.925 123.948 111.727 124.182 111.482 124.406C111.242 124.625 110.953 124.805 110.615 124.945C110.281 125.086 109.896 125.156 109.458 125.156C108.906 125.156 108.414 125.047 107.982 124.828C107.55 124.604 107.211 124.305 106.966 123.93C106.721 123.549 106.599 123.12 106.599 122.641C106.599 122.193 106.682 121.797 106.849 121.453C107.021 121.104 107.271 120.812 107.599 120.578C107.932 120.344 108.339 120.167 108.818 120.047C109.297 119.922 109.844 119.859 110.458 119.859H111.935ZM120.463 122.711C120.463 122.523 120.416 122.354 120.322 122.203C120.229 122.047 120.049 121.906 119.783 121.781C119.523 121.656 119.138 121.542 118.627 121.438C118.179 121.339 117.768 121.221 117.393 121.086C117.023 120.945 116.705 120.776 116.44 120.578C116.174 120.38 115.968 120.146 115.822 119.875C115.677 119.604 115.604 119.292 115.604 118.938C115.604 118.594 115.679 118.268 115.83 117.961C115.981 117.654 116.197 117.383 116.479 117.148C116.76 116.914 117.101 116.729 117.502 116.594C117.908 116.458 118.361 116.391 118.861 116.391C119.57 116.391 120.177 116.51 120.682 116.75C121.192 116.984 121.583 117.305 121.854 117.711C122.125 118.112 122.26 118.565 122.26 119.07H120.377C120.377 118.846 120.32 118.638 120.205 118.445C120.096 118.247 119.929 118.089 119.705 117.969C119.481 117.844 119.2 117.781 118.861 117.781C118.539 117.781 118.27 117.833 118.057 117.938C117.848 118.036 117.692 118.167 117.588 118.328C117.489 118.49 117.44 118.667 117.44 118.859C117.44 119 117.466 119.128 117.518 119.242C117.575 119.352 117.669 119.453 117.799 119.547C117.929 119.635 118.106 119.719 118.33 119.797C118.559 119.875 118.846 119.951 119.19 120.023C119.835 120.159 120.39 120.333 120.854 120.547C121.322 120.755 121.682 121.026 121.932 121.359C122.182 121.688 122.307 122.104 122.307 122.609C122.307 122.984 122.226 123.328 122.065 123.641C121.908 123.948 121.679 124.216 121.377 124.445C121.075 124.669 120.713 124.844 120.291 124.969C119.875 125.094 119.406 125.156 118.885 125.156C118.119 125.156 117.471 125.021 116.94 124.75C116.408 124.474 116.005 124.122 115.729 123.695C115.458 123.263 115.322 122.815 115.322 122.352H117.143C117.164 122.701 117.26 122.979 117.432 123.188C117.609 123.391 117.828 123.539 118.088 123.633C118.354 123.721 118.627 123.766 118.908 123.766C119.247 123.766 119.531 123.721 119.76 123.633C119.989 123.539 120.164 123.414 120.283 123.258C120.403 123.096 120.463 122.914 120.463 122.711ZM126.054 113V125H124.163V113H126.054ZM131.304 116.547L127.624 120.625L125.608 122.688L125.116 121.094L126.64 119.211L129.03 116.547H131.304ZM129.437 125L126.694 121.031L127.882 119.711L131.616 125H129.437Z" fill="#FEFEFE"/>
</svg>
