<svg width="198" height="177" viewBox="0 0 198 177" fill="none" xmlns="http://www.w3.org/2000/svg">
<rect x="0.166626" y="10" width="197.333" height="167" fill="#AFB3B7"/>
<path d="M173.82 0H23.8466L0.166611 10H197.5L173.82 0Z" fill="#D6D9DD"/>
<path d="M108.58 51.2962V55.0088H89.708V51.8183L98.8733 41.8216C99.8788 40.6872 100.672 39.7075 101.252 38.8825C101.832 38.0575 102.238 37.3163 102.47 36.6588C102.715 35.9885 102.837 35.3375 102.837 34.7059C102.837 33.8164 102.67 33.0366 102.334 32.3662C102.012 31.683 101.535 31.1481 100.904 30.7614C100.272 30.3617 99.505 30.1619 98.6026 30.1619C97.5585 30.1619 96.6819 30.3875 95.9729 30.8387C95.2639 31.2899 94.729 31.9151 94.368 32.7143C94.0071 33.5006 93.8266 34.403 93.8266 35.4213H89.1666C89.1666 33.7842 89.5405 32.2889 90.2881 30.9354C91.0358 29.569 92.1186 28.4861 93.5366 27.6869C94.9545 26.8748 96.6626 26.4688 98.6606 26.4688C100.543 26.4688 102.141 26.7846 103.456 27.4162C104.771 28.0479 105.77 28.9438 106.453 30.1039C107.149 31.2641 107.497 32.6369 107.497 34.2225C107.497 35.0991 107.355 35.9692 107.072 36.8329C106.788 37.6965 106.382 38.5602 105.854 39.4239C105.338 40.2747 104.726 41.1319 104.017 41.9956C103.308 42.8464 102.528 43.7101 101.677 44.5866L95.5862 51.2962H108.58Z" fill="#FEFEFE"/>
<rect x="61.6754" y="71.0088" width="73" height="27" rx="4" fill="#333333" fill-opacity="0.25"/>
<path d="M78.1598 88.5088V90.0088H70.5348V88.7197L74.2379 84.6807C74.6442 84.2223 74.9645 83.8265 75.1989 83.4932C75.4332 83.1598 75.5973 82.8604 75.691 82.5947C75.79 82.3239 75.8395 82.0609 75.8395 81.8057C75.8395 81.4463 75.7718 81.1312 75.6364 80.8604C75.5061 80.5843 75.3134 80.3682 75.0582 80.2119C74.803 80.0505 74.4931 79.9697 74.1285 79.9697C73.7067 79.9697 73.3525 80.0609 73.066 80.2432C72.7796 80.4255 72.5634 80.6781 72.4176 81.001C72.2718 81.3187 72.1989 81.6833 72.1989 82.0947H70.316C70.316 81.4333 70.4671 80.8291 70.7692 80.2822C71.0712 79.7301 71.5087 79.2926 72.0817 78.9697C72.6546 78.6416 73.3447 78.4775 74.152 78.4775C74.9124 78.4775 75.5582 78.6051 76.0895 78.8604C76.6207 79.1156 77.0244 79.4775 77.3004 79.9463C77.5817 80.415 77.7223 80.9697 77.7223 81.6104C77.7223 81.9645 77.665 82.3161 77.5504 82.665C77.4358 83.014 77.2718 83.363 77.0582 83.7119C76.8499 84.0557 76.6025 84.402 76.316 84.751C76.0296 85.0947 75.7145 85.4437 75.3707 85.7979L72.9098 88.5088H78.1598ZM82.0395 83.4697H83.1645C83.602 83.4697 83.964 83.3942 84.2504 83.2432C84.5421 83.0921 84.7582 82.8838 84.8989 82.6182C85.0395 82.3525 85.1098 82.0479 85.1098 81.7041C85.1098 81.3447 85.0447 81.0374 84.9145 80.7822C84.7895 80.5218 84.5968 80.3213 84.3364 80.1807C84.0811 80.04 83.7556 79.9697 83.3598 79.9697C83.0265 79.9697 82.7244 80.0374 82.4535 80.1729C82.1879 80.3031 81.977 80.4906 81.8207 80.7354C81.6645 80.9749 81.5864 81.2614 81.5864 81.5947H79.6957C79.6957 80.9906 79.8546 80.4541 80.1723 79.9854C80.49 79.5166 80.9223 79.1494 81.4692 78.8838C82.0212 78.613 82.641 78.4775 83.3285 78.4775C84.0629 78.4775 84.7035 78.5999 85.2504 78.8447C85.8025 79.0843 86.2322 79.4437 86.5395 79.9229C86.8468 80.402 87.0004 80.9958 87.0004 81.7041C87.0004 82.027 86.9249 82.3551 86.7739 82.6885C86.6228 83.0218 86.3989 83.3265 86.102 83.6025C85.8051 83.8734 85.4353 84.0947 84.9926 84.2666C84.5499 84.4333 84.0369 84.5166 83.4535 84.5166H82.0395V83.4697ZM82.0395 84.9385V83.9072H83.4535C84.1202 83.9072 84.6879 83.9854 85.1567 84.1416C85.6306 84.2979 86.016 84.514 86.3129 84.79C86.6098 85.0609 86.8259 85.3708 86.9614 85.7197C87.102 86.0687 87.1723 86.4385 87.1723 86.8291C87.1723 87.3604 87.0759 87.8343 86.8832 88.251C86.6957 88.6624 86.4275 89.0114 86.0785 89.2979C85.7296 89.5843 85.3207 89.8005 84.852 89.9463C84.3884 90.0921 83.8832 90.165 83.3364 90.165C82.8468 90.165 82.378 90.0973 81.9301 89.9619C81.4822 89.8265 81.0811 89.626 80.727 89.3604C80.3728 89.0895 80.0916 88.7536 79.8832 88.3525C79.6801 87.9463 79.5785 87.4775 79.5785 86.9463H81.4614C81.4614 87.2848 81.5395 87.5843 81.6957 87.8447C81.8572 88.0999 82.0811 88.3005 82.3676 88.4463C82.6593 88.5921 82.9926 88.665 83.3676 88.665C83.7634 88.665 84.1046 88.5947 84.391 88.4541C84.6775 88.3135 84.8962 88.1051 85.0473 87.8291C85.2035 87.5531 85.2817 87.2197 85.2817 86.8291C85.2817 86.3864 85.1957 86.027 85.0239 85.751C84.852 85.4749 84.6072 85.2718 84.2895 85.1416C83.9718 85.0062 83.5968 84.9385 83.1645 84.9385H82.0395ZM96.5364 83.3682V85.2275C96.5364 86.1182 96.4478 86.8786 96.2707 87.5088C96.0989 88.1338 95.8489 88.6416 95.5207 89.0322C95.1926 89.4229 94.7994 89.7093 94.341 89.8916C93.8879 90.0739 93.3801 90.165 92.8176 90.165C92.3697 90.165 91.953 90.1077 91.5676 89.9932C91.1874 89.8786 90.8436 89.6989 90.5364 89.4541C90.2291 89.2093 89.966 88.8942 89.7473 88.5088C89.5337 88.1182 89.3671 87.652 89.2473 87.1104C89.1327 86.5687 89.0754 85.9411 89.0754 85.2275V83.3682C89.0754 82.4723 89.164 81.7171 89.341 81.1025C89.5181 80.4827 89.7707 79.9801 90.0989 79.5947C90.427 79.2041 90.8176 78.9202 91.2707 78.7432C91.7291 78.5661 92.2395 78.4775 92.802 78.4775C93.2551 78.4775 93.6718 78.5348 94.052 78.6494C94.4374 78.7588 94.7811 78.9333 95.0832 79.1729C95.3905 79.4124 95.6509 79.7249 95.8645 80.1104C96.0832 80.4906 96.2499 80.9515 96.3645 81.4932C96.4791 82.0296 96.5364 82.6546 96.5364 83.3682ZM94.6535 85.4932V83.0869C94.6535 82.6338 94.6275 82.2354 94.5754 81.8916C94.5233 81.5426 94.4452 81.2484 94.341 81.0088C94.2421 80.764 94.1171 80.5661 93.966 80.415C93.815 80.2588 93.6431 80.1468 93.4504 80.0791C93.2577 80.0062 93.0416 79.9697 92.802 79.9697C92.5103 79.9697 92.2499 80.027 92.0207 80.1416C91.7916 80.251 91.5989 80.4281 91.4426 80.6729C91.2864 80.9176 91.1666 81.2406 91.0832 81.6416C91.0051 82.0374 90.966 82.5192 90.966 83.0869V85.4932C90.966 85.9515 90.9921 86.3551 91.0442 86.7041C91.0962 87.0531 91.1744 87.3525 91.2785 87.6025C91.3827 87.8473 91.5077 88.0505 91.6535 88.2119C91.8046 88.3682 91.9765 88.4827 92.1692 88.5557C92.3671 88.6286 92.5832 88.665 92.8176 88.665C93.1145 88.665 93.3775 88.6077 93.6067 88.4932C93.8358 88.3786 94.0285 88.1963 94.1848 87.9463C94.341 87.6911 94.4582 87.3604 94.5364 86.9541C94.6145 86.5479 94.6535 86.0609 94.6535 85.4932ZM107.218 85.7666H104.257V84.2119H107.218C107.733 84.2119 108.15 84.1286 108.468 83.9619C108.785 83.7952 109.017 83.5661 109.163 83.2744C109.314 82.9775 109.389 82.639 109.389 82.2588C109.389 81.8994 109.314 81.5635 109.163 81.251C109.017 80.9333 108.785 80.6781 108.468 80.4854C108.15 80.2926 107.733 80.1963 107.218 80.1963H104.858V90.0088H102.897V78.6338H107.218C108.098 78.6338 108.845 78.79 109.46 79.1025C110.08 79.4098 110.551 79.8369 110.874 80.3838C111.197 80.9255 111.358 81.5452 111.358 82.2432C111.358 82.9775 111.197 83.6077 110.874 84.1338C110.551 84.6598 110.08 85.0635 109.46 85.3447C108.845 85.626 108.098 85.7666 107.218 85.7666ZM117.113 81.5557V82.9307H112.347V81.5557H117.113ZM113.722 79.4854H115.605V87.6729C115.605 87.9333 115.642 88.1338 115.714 88.2744C115.793 88.4098 115.899 88.501 116.035 88.5479C116.17 88.5947 116.329 88.6182 116.511 88.6182C116.642 88.6182 116.767 88.6104 116.886 88.5947C117.006 88.5791 117.102 88.5635 117.175 88.5479L117.183 89.9854C117.027 90.0322 116.845 90.0739 116.636 90.1104C116.433 90.1468 116.199 90.165 115.933 90.165C115.501 90.165 115.118 90.0895 114.785 89.9385C114.451 89.7822 114.191 89.5296 114.004 89.1807C113.816 88.8317 113.722 88.3682 113.722 87.79V79.4854ZM123.508 87.7197C123.508 87.5322 123.461 87.363 123.368 87.2119C123.274 87.0557 123.094 86.915 122.829 86.79C122.568 86.665 122.183 86.5505 121.672 86.4463C121.224 86.3473 120.813 86.2301 120.438 86.0947C120.068 85.9541 119.75 85.7848 119.485 85.5869C119.219 85.389 119.013 85.1546 118.868 84.8838C118.722 84.613 118.649 84.3005 118.649 83.9463C118.649 83.6025 118.724 83.277 118.875 82.9697C119.026 82.6624 119.243 82.3916 119.524 82.1572C119.805 81.9229 120.146 81.738 120.547 81.6025C120.954 81.4671 121.407 81.3994 121.907 81.3994C122.615 81.3994 123.222 81.5192 123.727 81.7588C124.237 81.9932 124.628 82.3135 124.899 82.7197C125.17 83.1208 125.305 83.5739 125.305 84.0791H123.422C123.422 83.8551 123.365 83.6468 123.25 83.4541C123.141 83.2562 122.974 83.0973 122.75 82.9775C122.526 82.8525 122.245 82.79 121.907 82.79C121.584 82.79 121.316 82.8421 121.102 82.9463C120.894 83.0452 120.737 83.1755 120.633 83.3369C120.534 83.4984 120.485 83.6755 120.485 83.8682C120.485 84.0088 120.511 84.1364 120.563 84.251C120.62 84.3604 120.714 84.4619 120.844 84.5557C120.974 84.6442 121.151 84.7275 121.375 84.8057C121.605 84.8838 121.891 84.9593 122.235 85.0322C122.881 85.1676 123.435 85.3421 123.899 85.5557C124.368 85.764 124.727 86.0348 124.977 86.3682C125.227 86.6963 125.352 87.113 125.352 87.6182C125.352 87.9932 125.271 88.3369 125.11 88.6494C124.954 88.9567 124.724 89.2249 124.422 89.4541C124.12 89.6781 123.758 89.8525 123.336 89.9775C122.92 90.1025 122.451 90.165 121.93 90.165C121.164 90.165 120.516 90.0296 119.985 89.7588C119.454 89.4827 119.05 89.1312 118.774 88.7041C118.503 88.2718 118.368 87.8239 118.368 87.3604H120.188C120.209 87.7093 120.305 87.988 120.477 88.1963C120.654 88.3994 120.873 88.5479 121.133 88.6416C121.399 88.7301 121.672 88.7744 121.954 88.7744C122.292 88.7744 122.576 88.7301 122.805 88.6416C123.034 88.5479 123.209 88.4229 123.329 88.2666C123.448 88.1051 123.508 87.9229 123.508 87.7197Z" fill="#FEFEFE"/>
<rect x="56.6754" y="106.009" width="83" height="27" rx="4" fill="#333333" fill-opacity="0.25"/>
<path d="M70.6754 113.595V125.009H68.7926V115.829L66.0035 116.774V115.22L70.4489 113.595H70.6754ZM76.3442 123.524H76.5004C77.2192 123.524 77.8181 123.431 78.2973 123.243C78.7817 123.05 79.1671 122.785 79.4535 122.446C79.74 122.108 79.9457 121.709 80.0707 121.251C80.1957 120.793 80.2582 120.295 80.2582 119.759V117.798C80.2582 117.334 80.2087 116.928 80.1098 116.579C80.016 116.225 79.8806 115.931 79.7035 115.696C79.5317 115.457 79.3311 115.277 79.102 115.157C78.878 115.037 78.6358 114.978 78.3754 114.978C78.089 114.978 77.8311 115.043 77.602 115.173C77.378 115.298 77.1879 115.472 77.0317 115.696C76.8806 115.915 76.7634 116.173 76.6801 116.47C76.602 116.761 76.5629 117.074 76.5629 117.407C76.5629 117.72 76.5994 118.022 76.6723 118.313C76.7504 118.6 76.865 118.855 77.016 119.079C77.1671 119.303 77.3572 119.48 77.5864 119.61C77.8155 119.741 78.0837 119.806 78.391 119.806C78.6827 119.806 78.9509 119.751 79.1957 119.642C79.4405 119.527 79.6541 119.373 79.8364 119.181C80.0186 118.988 80.1619 118.772 80.266 118.532C80.3702 118.293 80.4275 118.048 80.4379 117.798L81.1567 118.017C81.1567 118.412 81.0733 118.803 80.9067 119.188C80.7452 119.569 80.5186 119.918 80.227 120.235C79.9405 120.548 79.6046 120.798 79.2192 120.985C78.839 121.173 78.4249 121.267 77.977 121.267C77.4353 121.267 76.9561 121.165 76.5395 120.962C76.128 120.754 75.7843 120.472 75.5082 120.118C75.2374 119.764 75.0343 119.358 74.8989 118.899C74.7634 118.441 74.6957 117.959 74.6957 117.454C74.6957 116.907 74.7791 116.394 74.9457 115.915C75.1124 115.436 75.3546 115.014 75.6723 114.649C75.99 114.28 76.3754 113.993 76.8285 113.79C77.2869 113.582 77.8051 113.478 78.3832 113.478C78.9978 113.478 79.5369 113.597 80.0004 113.837C80.464 114.076 80.8546 114.407 81.1723 114.829C81.49 115.251 81.7296 115.741 81.891 116.298C82.0525 116.855 82.1332 117.454 82.1332 118.095V118.759C82.1332 119.431 82.0733 120.079 81.9535 120.704C81.8337 121.324 81.6384 121.899 81.3676 122.431C81.102 122.957 80.7504 123.42 80.3129 123.821C79.8806 124.217 79.3494 124.527 78.7192 124.751C78.0942 124.97 77.3598 125.079 76.516 125.079H76.3442V123.524ZM85.6379 123.524H85.7942C86.5129 123.524 87.1119 123.431 87.591 123.243C88.0754 123.05 88.4608 122.785 88.7473 122.446C89.0337 122.108 89.2395 121.709 89.3645 121.251C89.4895 120.793 89.552 120.295 89.552 119.759V117.798C89.552 117.334 89.5025 116.928 89.4035 116.579C89.3098 116.225 89.1744 115.931 88.9973 115.696C88.8254 115.457 88.6249 115.277 88.3957 115.157C88.1718 115.037 87.9296 114.978 87.6692 114.978C87.3827 114.978 87.1249 115.043 86.8957 115.173C86.6718 115.298 86.4817 115.472 86.3254 115.696C86.1744 115.915 86.0572 116.173 85.9739 116.47C85.8957 116.761 85.8567 117.074 85.8567 117.407C85.8567 117.72 85.8931 118.022 85.966 118.313C86.0442 118.6 86.1587 118.855 86.3098 119.079C86.4608 119.303 86.6509 119.48 86.8801 119.61C87.1093 119.741 87.3775 119.806 87.6848 119.806C87.9765 119.806 88.2447 119.751 88.4895 119.642C88.7343 119.527 88.9478 119.373 89.1301 119.181C89.3124 118.988 89.4556 118.772 89.5598 118.532C89.664 118.293 89.7212 118.048 89.7317 117.798L90.4504 118.017C90.4504 118.412 90.3671 118.803 90.2004 119.188C90.039 119.569 89.8124 119.918 89.5207 120.235C89.2343 120.548 88.8983 120.798 88.5129 120.985C88.1327 121.173 87.7186 121.267 87.2707 121.267C86.7291 121.267 86.2499 121.165 85.8332 120.962C85.4218 120.754 85.078 120.472 84.802 120.118C84.5311 119.764 84.328 119.358 84.1926 118.899C84.0572 118.441 83.9895 117.959 83.9895 117.454C83.9895 116.907 84.0728 116.394 84.2395 115.915C84.4061 115.436 84.6483 115.014 84.966 114.649C85.2837 114.28 85.6692 113.993 86.1223 113.79C86.5806 113.582 87.0989 113.478 87.677 113.478C88.2916 113.478 88.8306 113.597 89.2942 113.837C89.7577 114.076 90.1483 114.407 90.466 114.829C90.7837 115.251 91.0233 115.741 91.1848 116.298C91.3462 116.855 91.427 117.454 91.427 118.095V118.759C91.427 119.431 91.3671 120.079 91.2473 120.704C91.1275 121.324 90.9322 121.899 90.6614 122.431C90.3957 122.957 90.0442 123.42 89.6067 123.821C89.1744 124.217 88.6431 124.527 88.0129 124.751C87.3879 124.97 86.6535 125.079 85.8098 125.079H85.6379V123.524ZM102.202 113.634V125.009H100.257V113.634H102.202ZM105.772 113.634V115.196H96.7176V113.634H105.772ZM111.004 123.313V119.282C111.004 118.98 110.949 118.72 110.839 118.501C110.73 118.282 110.563 118.113 110.339 117.993C110.121 117.873 109.845 117.813 109.511 117.813C109.204 117.813 108.938 117.866 108.714 117.97C108.491 118.074 108.316 118.215 108.191 118.392C108.066 118.569 108.004 118.769 108.004 118.993H106.129C106.129 118.66 106.209 118.337 106.371 118.024C106.532 117.712 106.767 117.433 107.074 117.188C107.381 116.944 107.748 116.751 108.175 116.61C108.602 116.47 109.082 116.399 109.613 116.399C110.248 116.399 110.811 116.506 111.3 116.72C111.795 116.933 112.183 117.256 112.464 117.688C112.751 118.116 112.894 118.652 112.894 119.298V123.056C112.894 123.441 112.92 123.787 112.972 124.095C113.03 124.397 113.11 124.66 113.214 124.884V125.009H111.285C111.196 124.806 111.126 124.548 111.074 124.235C111.027 123.918 111.004 123.61 111.004 123.313ZM111.277 119.868L111.293 121.032H109.941C109.592 121.032 109.285 121.066 109.019 121.134C108.754 121.196 108.532 121.29 108.355 121.415C108.178 121.54 108.045 121.691 107.957 121.868C107.868 122.045 107.824 122.246 107.824 122.47C107.824 122.694 107.876 122.899 107.98 123.087C108.084 123.269 108.235 123.412 108.433 123.517C108.636 123.621 108.881 123.673 109.168 123.673C109.553 123.673 109.889 123.595 110.175 123.438C110.467 123.277 110.696 123.082 110.863 122.853C111.03 122.618 111.118 122.397 111.129 122.188L111.738 123.024C111.675 123.238 111.569 123.467 111.418 123.712C111.267 123.957 111.069 124.191 110.824 124.415C110.584 124.634 110.295 124.813 109.957 124.954C109.623 125.095 109.238 125.165 108.8 125.165C108.248 125.165 107.756 125.056 107.324 124.837C106.892 124.613 106.553 124.313 106.308 123.938C106.063 123.558 105.941 123.129 105.941 122.649C105.941 122.201 106.024 121.806 106.191 121.462C106.363 121.113 106.613 120.821 106.941 120.587C107.274 120.353 107.681 120.175 108.16 120.056C108.639 119.931 109.186 119.868 109.8 119.868H111.277ZM119.805 122.72C119.805 122.532 119.758 122.363 119.664 122.212C119.571 122.056 119.391 121.915 119.125 121.79C118.865 121.665 118.48 121.55 117.969 121.446C117.521 121.347 117.11 121.23 116.735 121.095C116.365 120.954 116.047 120.785 115.782 120.587C115.516 120.389 115.31 120.155 115.164 119.884C115.019 119.613 114.946 119.3 114.946 118.946C114.946 118.603 115.021 118.277 115.172 117.97C115.323 117.662 115.539 117.392 115.821 117.157C116.102 116.923 116.443 116.738 116.844 116.603C117.25 116.467 117.704 116.399 118.204 116.399C118.912 116.399 119.519 116.519 120.024 116.759C120.534 116.993 120.925 117.313 121.196 117.72C121.467 118.121 121.602 118.574 121.602 119.079H119.719C119.719 118.855 119.662 118.647 119.547 118.454C119.438 118.256 119.271 118.097 119.047 117.978C118.823 117.853 118.542 117.79 118.204 117.79C117.881 117.79 117.612 117.842 117.399 117.946C117.191 118.045 117.034 118.175 116.93 118.337C116.831 118.498 116.782 118.675 116.782 118.868C116.782 119.009 116.808 119.136 116.86 119.251C116.917 119.36 117.011 119.462 117.141 119.556C117.271 119.644 117.448 119.728 117.672 119.806C117.901 119.884 118.188 119.959 118.532 120.032C119.177 120.168 119.732 120.342 120.196 120.556C120.664 120.764 121.024 121.035 121.274 121.368C121.524 121.696 121.649 122.113 121.649 122.618C121.649 122.993 121.568 123.337 121.407 123.649C121.25 123.957 121.021 124.225 120.719 124.454C120.417 124.678 120.055 124.853 119.633 124.978C119.217 125.103 118.748 125.165 118.227 125.165C117.461 125.165 116.813 125.03 116.282 124.759C115.75 124.483 115.347 124.131 115.071 123.704C114.8 123.272 114.664 122.824 114.664 122.36H116.485C116.506 122.709 116.602 122.988 116.774 123.196C116.951 123.399 117.17 123.548 117.43 123.642C117.696 123.73 117.969 123.774 118.25 123.774C118.589 123.774 118.873 123.73 119.102 123.642C119.331 123.548 119.506 123.423 119.625 123.267C119.745 123.105 119.805 122.923 119.805 122.72ZM125.396 113.009V125.009H123.505V113.009H125.396ZM130.646 116.556L126.966 120.634L124.95 122.696L124.458 121.103L125.982 119.22L128.372 116.556H130.646ZM128.779 125.009L126.036 121.04L127.224 119.72L130.958 125.009H128.779Z" fill="#FEFEFE"/>
</svg>
