<svg width="84" height="84" viewBox="0 0 84 84" fill="none" xmlns="http://www.w3.org/2000/svg">
<path d="M42 0.325195C65.0166 0.325195 83.675 18.9835 83.675 42.0002C83.675 65.0127 65.0166 83.6669 42 83.6669C18.9833 83.6669 0.333314 65.0127 0.333314 42.0002C0.329147 18.9835 18.9833 0.325195 42 0.325195ZM41.9833 34.7002C40.9622 34.7016 39.9771 35.0779 39.2152 35.7577C38.4532 36.4375 37.9674 37.3734 37.85 38.3877L37.8208 38.871L37.8375 61.796L37.8625 62.2794C37.9789 63.2957 38.4651 64.2336 39.2285 64.9145C39.9919 65.5954 40.9791 65.9717 42.0021 65.9717C43.025 65.9717 44.0122 65.5954 44.7756 64.9145C45.539 64.2336 46.0252 63.2957 46.1416 62.2794L46.1666 61.7919L46.15 38.8669L46.1208 38.3794C46.0004 37.3659 45.5121 36.4318 44.7487 35.7544C43.9853 35.077 42.9998 34.7034 41.9791 34.7044M42 19.0835C40.617 19.0835 39.2906 19.6329 38.3127 20.6108C37.3348 21.5888 36.7854 22.9151 36.7854 24.2981C36.7854 25.6811 37.3348 27.0075 38.3127 27.9854C39.2906 28.9633 40.617 29.5127 42 29.5127C43.383 29.5127 44.7093 28.9633 45.6872 27.9854C46.6652 27.0075 47.2146 25.6811 47.2146 24.2981C47.2146 22.9151 46.6652 21.5888 45.6872 20.6108C44.7093 19.6329 43.383 19.0835 42 19.0835Z" fill="#CD202E"/>
</svg>
