<svg width="84" height="84" viewBox="0 0 84 84" fill="none" xmlns="http://www.w3.org/2000/svg">
<path d="M41.9997 0.333252C65.0122 0.333252 83.6663 18.9916 83.6663 41.9999C83.6663 65.0082 65.0122 83.6666 41.9997 83.6666C18.9872 83.6666 0.333008 65.0082 0.333008 41.9999C0.333008 18.9916 18.9872 0.333252 41.9997 0.333252ZM41.9997 56.5832C40.8946 56.5832 39.8348 57.0222 39.0534 57.8036C38.272 58.585 37.833 59.6448 37.833 60.7499C37.833 61.855 38.272 62.9148 39.0534 63.6962C39.8348 64.4776 40.8946 64.9166 41.9997 64.9166C43.1047 64.9166 44.1645 64.4776 44.9459 63.6962C45.7273 62.9148 46.1663 61.855 46.1663 60.7499C46.1663 59.6448 45.7273 58.585 44.9459 57.8036C44.1645 57.0222 43.1047 56.5832 41.9997 56.5832ZM41.9997 20.1249C38.9607 20.1249 36.0463 21.3321 33.8974 23.481C31.7485 25.6298 30.5413 28.5443 30.5413 31.5832C30.5416 32.375 30.8424 33.1372 31.3829 33.7157C31.9234 34.2943 32.6634 34.6461 33.4533 34.7C34.2433 34.754 35.0242 34.5061 35.6384 34.0064C36.2526 33.5068 36.6542 32.7926 36.7622 32.0082L36.7913 31.5832C36.7913 30.2019 37.3401 28.8772 38.3168 27.9004C39.2936 26.9236 40.6183 26.3749 41.9997 26.3749C43.381 26.3749 44.7058 26.9236 45.6825 27.9004C46.6593 28.8772 47.208 30.2019 47.208 31.5832C47.208 33.8291 46.6455 34.9374 44.5205 37.1332L43.958 37.7082C40.2997 41.3666 38.8747 43.7374 38.8747 48.2499C38.8747 49.0787 39.2039 49.8736 39.79 50.4596C40.376 51.0457 41.1709 51.3749 41.9997 51.3749C42.8285 51.3749 43.6233 51.0457 44.2094 50.4596C44.7954 49.8736 45.1247 49.0787 45.1247 48.2499C45.1247 46.0041 45.6872 44.8957 47.8122 42.6999L48.3747 42.1249C52.033 38.4666 53.458 36.0957 53.458 31.5832C53.458 28.5443 52.2508 25.6298 50.1019 23.481C47.9531 21.3321 45.0386 20.1249 41.9997 20.1249Z" fill="#FF9900"/>
</svg>
